<svg width="15" height="15" viewBox="0 0 15 15" fill="none" xmlns="http://www.w3.org/2000/svg">
<path d="M2.5 8.125C2.84518 8.125 3.125 7.84518 3.125 7.5C3.125 7.15482 2.84518 6.875 2.5 6.875C2.15482 6.875 1.875 7.15482 1.875 7.5C1.875 7.84518 2.15482 8.125 2.5 8.125Z" stroke="black" stroke-width="2"/>
<path d="M7.5 8.125C7.84518 8.125 8.125 7.84518 8.125 7.5C8.125 7.15482 7.84518 6.875 7.5 6.875C7.15482 6.875 6.875 7.15482 6.875 7.5C6.875 7.84518 7.15482 8.125 7.5 8.125Z" stroke="black" stroke-width="2"/>
<path d="M12.5 8.125C12.8452 8.125 13.125 7.84518 13.125 7.5C13.125 7.15482 12.8452 6.875 12.5 6.875C12.1548 6.875 11.875 7.15482 11.875 7.5C11.875 7.84518 12.1548 8.125 12.5 8.125Z" stroke="black" stroke-width="2"/>
</svg>
